<?xml version="1.0" encoding="utf-8"?>
<!-- Generator: Adobe Illustrator 24.0.1, SVG Export Plug-In . SVG Version: 6.00 Build 0)  -->
<svg version="1.1" id="Layer_1" xmlns="http://www.w3.org/2000/svg" xmlns:xlink="http://www.w3.org/1999/xlink" x="0px" y="0px"
	 viewBox="0 0 20 20" style="enable-background:new 0 0 20 20;" xml:space="preserve">
<style type="text/css">
	.st0{clip-path:url(#back_1_);}
	.st1{clip-path:url(#mask_1_);}
	.st2{fill-rule:evenodd;clip-rule:evenodd;fill:#FFFFFF;}
	.st3{clip-path:url(#mask_1_);fill:#CC007E;}
</style>
<g>
	<defs>
		<circle id="back" cx="10" cy="10" r="8"/>
	</defs>
	<defs>
		<circle id="mask" cx="10" cy="10" r="10"/>
	</defs>
	<use xlink:href="#back"  style="overflow:visible;"/>
	<clipPath id="back_1_">
		<use xlink:href="#back"  style="overflow:visible;"/>
	</clipPath>
	<clipPath id="mask_1_" class="st0">
		<use xlink:href="#mask"  style="overflow:visible;"/>
	</clipPath>
	<g id="elementor" class="st1">
		<g id="_x33_">
			<path class="st2" d="M8.6,6.5H4.8c-0.5,0-1-0.4-1-1v0c0-0.5,0.4-1,1-1h3.8c0.5,0,1,0.4,1,1v0C9.6,6.1,9.1,6.5,8.6,6.5z"/>
		</g>
		<g id="_x32_">
			<path class="st2" d="M8.6,11H6.2c-0.5,0-1-0.4-1-1v0c0-0.5,0.4-1,1-1h2.4c0.5,0,1,0.4,1,1v0C9.6,10.5,9.1,11,8.6,11z"/>
		</g>
		<g id="_x31_">
			<path class="st2" d="M10.2,15.1H4.8c-0.5,0-1-0.4-1-1v0c0-0.5,0.4-1,1-1h5.3c0.5,0,1,0.4,1,1v0C11.1,14.7,10.7,15.1,10.2,15.1z"
				/>
		</g>
	</g>
	<path id="smcstylus_1_" class="st3" d="M13.3,4.6c1,0,2,0.3,2.8,1.1c0.2,0.2,0.4,0.4,0.5,0.7c0.1,0.4-0.1,0.8-0.4,1
		c-0.4,0.2-0.7,0.1-1-0.2c-0.5-0.5-1.1-0.8-1.8-0.8c-0.5,0-0.9,0-1.3,0.3c-0.6,0.4-0.6,1.1,0,1.5c0.5,0.3,1.2,0.6,1.7,0.8
		c0.2,0.1,1.2,0.4,1.9,0.9c0.2,0.2,1.8,1.3,1.5,2.7c-0.1,0.3-0.2,0.6-0.4,0.8c-0.8,1-2,0.3-3.2,1.3c-0.3,0.3-0.6,0.6-1,0.6
		c-0.3,0-0.5-0.2-0.6-0.5c-0.1-0.2-0.1-0.5,0.1-0.8c0.1-0.1,0.2-0.2,0.3-0.3c0.2-0.2,1-0.3,1.4-0.4c0.2-0.1,0.4-0.2,0.7-0.3
		c0.1-0.1,0.2-0.2,0.4-0.3c0.1-0.1,0.2-0.2,0.2-0.3c0,0,0.2-0.4,0.1-0.8c-0.1-0.3-0.3-0.5-0.6-0.6c-0.8-0.4-1.6-0.7-2.5-1
		c-0.4-0.1-0.7-0.3-1-0.5c-1.9-1.1-1.5-3.5-0.1-4.5C11.6,4.8,12.4,4.6,13.3,4.6z M11.4,14.2c0,0.5-0.4,1-1,1c-0.5,0-1-0.4-1-1
		c0-0.5,0.4-1,1-1C10.9,13.2,11.4,13.6,11.4,14.2z"/>
</g>
</svg>
