<?xml version="1.0" encoding="utf-8"?>
<!-- Generator: Adobe Illustrator 24.0.1, SVG Export Plug-In . SVG Version: 6.00 Build 0)  -->
<svg version="1.1" id="OBJECTS" xmlns="http://www.w3.org/2000/svg" xmlns:xlink="http://www.w3.org/1999/xlink" x="0px" y="0px"
	 viewBox="0 0 500 500" style="enable-background:new 0 0 500 500;" xml:space="preserve">
<style type="text/css">
	.st0{clip-path:url(#back_2_);}
	.st1{clip-path:url(#mask_1_);}
	.st2{fill-rule:evenodd;clip-rule:evenodd;fill:#FFFFFF;}
	.st3{clip-path:url(#mask_1_);fill:#CC007E;}
</style>
<g>
	<defs>
		<circle id="back" cx="250" cy="250.7" r="220.6"/>
	</defs>
	<defs>
		<circle id="mask" cx="250" cy="250.7" r="256.6"/>
	</defs>
	<linearGradient id="back_1_" gradientUnits="userSpaceOnUse" x1="93.9786" y1="406.7148" x2="406.0214" y2="94.6721">
		<stop  offset="0" style="stop-color:#A76AA9"/>
		<stop  offset="1" style="stop-color:#1580C5"/>
	</linearGradient>
	<use xlink:href="#back"  style="overflow:visible;fill:url(#back_1_);"/>
	<clipPath id="back_2_">
		<use xlink:href="#back"  style="overflow:visible;"/>
	</clipPath>
	<clipPath id="mask_1_" class="st0">
		<use xlink:href="#mask"  style="overflow:visible;"/>
	</clipPath>
	<g id="elementor" class="st1">
		<g id="_x33_">
			<path class="st2" d="M214.9,163.9h-94.3c-13.4,0-24.4-10.9-24.4-24.4v0c0-13.4,10.9-24.4,24.4-24.4h94.3
				c13.4,0,24.4,10.9,24.4,24.4v0C239.2,153,228.3,163.9,214.9,163.9z"/>
		</g>
		<g id="_x32_">
			<path class="st2" d="M214.9,275H156c-13.4,0-24.4-10.9-24.4-24.4v0c0-13.4,10.9-24.4,24.4-24.4h58.8c13.4,0,24.4,10.9,24.4,24.4
				v0C239.2,264.1,228.3,275,214.9,275z"/>
		</g>
		<g id="_x31_">
			<path class="st2" d="M253.9,379.4H120.5c-13.4,0-24.4-10.9-24.4-24.4v0c0-13.4,10.9-24.4,24.4-24.4h133.4
				c13.4,0,24.4,10.9,24.4,24.4v0C278.3,368.5,267.4,379.4,253.9,379.4z"/>
		</g>
	</g>
	<path id="smcstylus_1_" class="st3" d="M333.5,115.2c25.3,0.6,49.8,8.3,69.7,27.3c5.1,4.8,9,10.8,11.3,17.4c3,9.5-2.7,20.3-11,24.7
		c-9.2,4.9-17.7,2.5-24.9-4.1c-12.5-11.5-26.8-18.9-43.9-19.8c-11.8-0.6-23.2,1-33.1,8.2c-14.9,10.8-15.4,28.6,0.2,38
		c13.7,8.2,28.9,13.9,43.4,20.9c6.2,3,28.9,9.8,47.5,23.5c5.9,4.4,44.2,33.4,38.7,66.3c-1.4,7.6-4.7,14.8-9.7,20.7
		c-20.6,25.5-50.3,8.2-80.9,33.6c-8.2,6.8-14.9,15.4-24.7,14.4c-7-0.9-13-5.5-15.8-11.9c-2.6-6.2-2-13.2,1.5-18.9
		c1.7-2.7,4.1-5,6.8-6.7c6.2-3.9,26.2-6.8,34.7-10.3c5.7-2.4,11.1-5.3,16.4-8.5c3.2-1.7,6.2-3.8,8.8-6.3c2.5-2.2,4.5-4.8,6.2-7.7
		c0.3-0.6,5.1-10.1,1.8-19.2c-2.7-6.3-7.8-11.3-14.2-13.8c-20.1-9.3-40.8-17.3-61.3-25.9c-8.9-3.7-17.6-7.9-26-12.6
		c-48.6-28.3-38.3-88-1.8-112.7C290.8,119.6,310.9,115.4,333.5,115.2z M284.7,355.2c0,13.7-11.1,24.7-24.7,24.7
		c-13.7,0-24.7-11.1-24.7-24.7s11.1-24.7,24.7-24.7C273.6,330.4,284.7,341.5,284.7,355.2z"/>
</g>
</svg>
